<svg
 xmlns="http://www.w3.org/2000/svg"
 xmlns:xlink="http://www.w3.org/1999/xlink"
 width="458px" height="78px">
<path fill-rule="evenodd"  fill="rgb(255, 255, 255)"
 d="M436.935,75.860 L433.219,62.503 L404.647,62.503 L400.814,75.860 L380.838,75.860 L406.273,1.876 L431.476,1.876 L457.144,75.860 L436.935,75.860 ZM421.488,23.711 C421.100,22.550 420.733,21.331 420.385,20.053 C420.036,18.775 419.746,17.518 419.514,16.278 C419.358,15.814 419.241,15.369 419.165,14.943 C419.087,14.518 419.009,14.111 418.933,13.723 C418.855,14.111 418.759,14.518 418.643,14.943 C418.526,15.369 418.428,15.814 418.352,16.278 C418.274,16.434 418.236,16.569 418.236,16.685 C418.236,16.801 418.196,16.937 418.120,17.091 C417.888,18.253 417.635,19.376 417.365,20.459 C417.093,21.545 416.802,22.628 416.494,23.711 L408.945,48.218 L429.037,48.218 L421.488,23.711 ZM323.695,37.649 C322.920,36.720 322.185,35.616 321.488,34.339 C320.792,33.061 320.133,31.725 319.514,30.332 C319.049,29.326 318.603,28.339 318.178,27.370 C317.752,26.403 317.345,25.494 316.959,24.641 C317.345,27.042 317.656,29.481 317.888,31.958 C318.120,34.437 318.236,36.914 318.236,39.391 L318.236,75.860 L298.724,75.860 L298.724,1.876 L318.236,1.876 L346.111,39.855 C346.808,40.941 347.485,42.082 348.143,43.282 C348.800,44.483 349.439,45.703 350.060,46.940 C350.524,47.947 350.989,48.955 351.453,49.960 C351.918,50.967 352.383,51.934 352.847,52.863 C352.769,52.012 352.673,51.199 352.557,50.424 C352.441,49.651 352.343,48.838 352.267,47.985 C352.110,46.437 351.994,44.850 351.918,43.224 C351.840,41.598 351.802,39.933 351.802,38.229 L351.802,1.876 L371.198,1.876 L371.198,75.860 L351.802,75.860 L323.695,37.649 ZM284.208,44.269 C284.052,45.895 283.761,47.503 283.337,49.089 C282.910,50.677 282.388,52.245 281.769,53.793 C278.517,61.304 273.444,67.131 266.554,71.272 C259.661,75.415 252.422,77.486 244.835,77.486 C244.292,77.486 243.770,77.466 243.267,77.428 C242.763,77.388 242.240,77.370 241.699,77.370 C239.066,77.137 236.453,76.673 233.859,75.976 C231.264,75.279 228.767,74.312 226.368,73.072 C219.864,69.666 214.754,64.808 211.037,58.496 C207.321,52.187 205.462,45.624 205.462,38.810 C205.462,37.805 205.501,36.798 205.579,35.790 C205.655,34.785 205.811,33.740 206.043,32.655 C206.430,30.642 206.972,28.609 207.669,26.557 C208.366,24.506 209.217,22.550 210.224,20.692 C213.785,14.111 218.741,9.077 225.091,5.593 C231.439,2.109 238.059,0.367 244.951,0.367 C245.880,0.367 246.828,0.407 247.797,0.483 C248.764,0.561 249.713,0.639 250.642,0.715 C253.506,1.103 256.351,1.800 259.179,2.806 C262.004,3.813 264.696,5.129 267.251,6.755 C272.748,10.317 277.007,15.059 280.027,20.982 C283.046,26.905 284.556,33.081 284.556,39.507 C284.556,40.282 284.536,41.075 284.498,41.888 C284.458,42.701 284.362,43.496 284.208,44.269 ZM264.289,37.765 C264.249,37.300 264.231,36.836 264.231,36.371 C263.843,33.043 262.837,29.829 261.211,26.731 C259.585,23.635 257.339,21.234 254.475,19.530 C253.700,19.144 252.925,18.795 252.152,18.485 C251.377,18.177 250.602,17.904 249.829,17.672 C249.054,17.518 248.279,17.382 247.506,17.266 C246.731,17.149 245.957,17.091 245.183,17.091 C241.235,17.091 237.594,18.331 234.266,20.808 C230.936,23.287 228.613,26.577 227.297,30.680 C227.219,30.836 227.161,30.990 227.123,31.145 C227.083,31.301 227.065,31.455 227.065,31.609 C226.833,32.306 226.639,33.023 226.484,33.758 C226.328,34.495 226.174,35.250 226.020,36.023 C225.942,36.565 225.884,37.088 225.846,37.591 C225.806,38.095 225.788,38.618 225.788,39.159 C225.788,39.469 225.788,39.759 225.788,40.030 C225.788,40.302 225.826,40.592 225.904,40.901 C226.136,45.006 227.394,48.896 229.678,52.573 C231.961,56.252 235.117,58.671 239.144,59.832 C239.609,59.988 240.073,60.122 240.538,60.239 C241.002,60.355 241.505,60.453 242.048,60.529 C242.512,60.607 242.977,60.665 243.441,60.703 C243.906,60.743 244.370,60.761 244.835,60.761 C248.938,60.761 252.635,59.542 255.927,57.103 C259.217,54.664 261.598,51.394 263.070,47.289 C263.302,46.516 263.514,45.703 263.708,44.850 C263.901,43.998 264.037,43.147 264.115,42.294 C264.191,41.754 264.249,41.211 264.289,40.668 C264.327,40.128 264.347,39.623 264.347,39.159 C264.347,38.694 264.327,38.229 264.289,37.765 ZM180.957,68.891 C177.316,71.370 173.367,73.072 169.110,74.002 C164.851,74.931 160.554,75.511 156.218,75.744 C154.979,75.822 153.759,75.860 152.560,75.860 C151.358,75.860 150.179,75.860 149.017,75.860 L128.692,75.860 L128.692,1.876 L150.295,1.876 C151.456,1.876 152.636,1.876 153.837,1.876 C155.037,1.876 156.218,1.916 157.380,1.993 C161.561,2.225 165.684,2.806 169.749,3.735 C173.814,4.664 177.549,6.368 180.957,8.845 C185.292,11.865 188.660,15.854 191.061,20.808 C193.460,25.764 194.816,30.874 195.126,36.139 C195.202,36.603 195.242,37.068 195.242,37.533 C195.242,37.997 195.242,38.462 195.242,38.926 C195.242,39.159 195.242,39.411 195.242,39.681 C195.242,39.953 195.242,40.204 195.242,40.436 C195.010,45.935 193.693,51.237 191.293,56.348 C188.893,61.458 185.446,65.639 180.957,68.891 ZM174.917,37.997 C174.917,37.689 174.877,37.378 174.801,37.068 C174.645,34.126 173.948,31.281 172.710,28.531 C171.471,25.784 169.767,23.595 167.600,21.969 C165.974,20.654 164.174,19.763 162.199,19.298 C160.225,18.833 158.193,18.563 156.102,18.485 C155.714,18.485 155.307,18.485 154.882,18.485 C154.456,18.485 154.049,18.485 153.663,18.485 L148.553,18.485 L148.553,59.251 C148.785,59.251 149.035,59.271 149.308,59.309 C149.578,59.349 149.830,59.368 150.062,59.368 C150.371,59.368 150.643,59.387 150.875,59.426 C151.108,59.466 151.340,59.484 151.572,59.484 C152.345,59.484 153.158,59.466 154.011,59.426 C154.862,59.387 155.675,59.329 156.450,59.251 C158.463,59.097 160.437,58.749 162.374,58.206 C164.308,57.665 166.050,56.852 167.600,55.767 C170.077,53.987 171.916,51.568 173.117,48.508 C174.317,45.450 174.917,42.256 174.917,38.926 C174.917,38.618 174.917,38.307 174.917,37.997 ZM69.344,1.876 L114.756,1.876 L114.756,18.020 L89.205,18.020 L89.205,30.912 L113.246,30.912 L113.246,46.708 L89.205,46.708 L89.205,59.251 L114.756,59.251 L114.756,75.860 L69.344,75.860 L69.344,1.876 ZM54.710,54.257 C54.245,58.284 52.948,62.117 50.819,65.755 C48.689,69.396 45.843,72.183 42.283,74.118 C40.965,74.738 39.611,75.261 38.218,75.686 C36.824,76.110 35.430,76.479 34.037,76.789 C32.875,77.021 31.714,77.196 30.552,77.312 C29.391,77.428 28.267,77.486 27.184,77.486 C26.952,77.486 26.738,77.486 26.545,77.486 C26.351,77.486 26.139,77.486 25.906,77.486 C21.261,77.330 16.691,76.305 12.202,74.408 C7.710,72.512 3.723,69.976 0.239,66.801 L9.530,51.934 C9.606,52.012 9.665,52.070 9.704,52.109 C9.743,52.148 9.801,52.207 9.879,52.283 C11.969,54.606 14.330,56.754 16.963,58.729 C19.595,60.703 22.615,61.768 26.023,61.923 C26.099,61.923 26.197,61.943 26.313,61.981 C26.429,62.021 26.525,62.039 26.603,62.039 C26.680,62.039 26.778,62.059 26.894,62.097 C27.010,62.137 27.106,62.155 27.184,62.155 C27.493,62.155 27.823,62.137 28.171,62.097 C28.520,62.059 28.848,62.001 29.158,61.923 C30.396,61.690 31.578,61.226 32.701,60.529 C33.822,59.832 34.693,58.981 35.314,57.974 C35.390,57.820 35.468,57.665 35.546,57.509 C35.623,57.355 35.701,57.201 35.779,57.045 C35.933,56.504 36.049,55.999 36.127,55.535 C36.203,55.070 36.243,54.646 36.243,54.257 C36.243,52.167 35.332,50.406 33.514,48.973 C31.694,47.541 29.739,46.437 27.649,45.663 C26.796,45.354 25.983,45.102 25.210,44.908 C24.435,44.715 23.700,44.541 23.003,44.385 C22.925,44.385 22.847,44.367 22.771,44.327 C22.693,44.289 22.615,44.269 22.538,44.269 C18.744,43.340 15.181,41.850 11.853,39.797 C8.523,37.747 6.238,34.785 5.001,30.912 C4.768,30.139 4.554,29.326 4.362,28.473 C4.168,27.622 4.032,26.731 3.955,25.802 C3.877,25.494 3.839,25.203 3.839,24.931 C3.839,24.661 3.839,24.370 3.839,24.060 C3.839,23.441 3.857,22.822 3.897,22.202 C3.935,21.583 4.032,20.964 4.188,20.343 C4.420,18.795 4.806,17.247 5.349,15.698 C5.890,14.150 6.587,12.756 7.440,11.516 C9.917,7.413 13.111,4.472 17.021,2.689 C20.930,0.909 25.015,0.018 29.275,0.018 C30.280,0.018 31.307,0.076 32.352,0.192 C33.398,0.309 34.461,0.445 35.546,0.599 C38.334,1.063 41.101,1.838 43.851,2.922 C46.598,4.007 49.135,5.285 51.458,6.755 L45.070,21.040 C42.980,19.492 40.773,18.137 38.450,16.975 C36.127,15.814 33.610,15.233 30.901,15.233 C30.745,15.233 30.590,15.233 30.436,15.233 C30.280,15.233 30.126,15.233 29.971,15.233 C28.189,15.465 26.525,16.260 24.977,17.614 C23.428,18.970 22.654,20.421 22.654,21.969 C22.654,22.202 22.673,22.434 22.713,22.666 C22.751,22.898 22.847,23.131 23.003,23.363 C23.157,23.906 23.428,24.408 23.816,24.873 C24.202,25.337 24.629,25.764 25.093,26.150 C25.945,26.847 27.184,27.486 28.810,28.067 C30.436,28.648 32.138,29.210 33.920,29.751 C35.390,30.139 36.824,30.506 38.218,30.854 C39.611,31.203 40.773,31.533 41.702,31.842 C46.037,33.391 49.289,35.965 51.458,39.565 C53.625,43.166 54.748,46.980 54.826,51.005 C54.826,51.161 54.826,51.277 54.826,51.354 C54.826,51.432 54.826,51.510 54.826,51.586 C54.826,52.050 54.806,52.515 54.768,52.980 C54.728,53.444 54.710,53.871 54.710,54.257 Z"/>
</svg>
